<mxfile host="65bd71144e">
    <diagram id="CPlGFjRf_UXyZMOOJN9k" name="synchronized原理">
        <mxGraphModel dx="1374" dy="712" grid="1" gridSize="10" guides="1" tooltips="1" connect="1" arrows="1" fold="1" page="1" pageScale="1" pageWidth="827" pageHeight="1169" math="0" shadow="0">
            <root>
                <mxCell id="0"/>
                <mxCell id="1" parent="0"/>
                <mxCell id="10" value="" style="edgeStyle=none;html=1;" parent="1" source="5" target="9" edge="1">
                    <mxGeometry relative="1" as="geometry"/>
                </mxCell>
                <mxCell id="5" value="对象头" style="rounded=0;whiteSpace=wrap;html=1;" parent="1" vertex="1">
                    <mxGeometry x="30" y="30" width="120" height="60" as="geometry"/>
                </mxCell>
                <mxCell id="6" value="对象实例数据" style="rounded=0;whiteSpace=wrap;html=1;" parent="1" vertex="1">
                    <mxGeometry x="30" y="90" width="120" height="120" as="geometry"/>
                </mxCell>
                <mxCell id="8" value="对齐填充" style="rounded=0;whiteSpace=wrap;html=1;" parent="1" vertex="1">
                    <mxGeometry x="30" y="210" width="120" height="60" as="geometry"/>
                </mxCell>
                <mxCell id="9" value="Mark Word" style="whiteSpace=wrap;html=1;rounded=0;" parent="1" vertex="1">
                    <mxGeometry x="230" y="30" width="90" height="60" as="geometry"/>
                </mxCell>
                <mxCell id="11" value="Class Metadata&lt;br&gt;Address" style="whiteSpace=wrap;html=1;rounded=0;" parent="1" vertex="1">
                    <mxGeometry x="320" y="30" width="80" height="60" as="geometry"/>
                </mxCell>
                <mxCell id="12" value="数组长度" style="whiteSpace=wrap;html=1;rounded=0;" parent="1" vertex="1">
                    <mxGeometry x="400" y="30" width="90" height="60" as="geometry"/>
                </mxCell>
                <mxCell id="97" value="&lt;p style=&quot;line-height: 1.6&quot;&gt;&lt;/p&gt;&lt;div style=&quot;&quot;&gt;&lt;span&gt;Marrk Word 存储对象的hashCode，锁信息或分代年龄或GC标志&lt;/span&gt;&lt;/div&gt;&lt;div style=&quot;&quot;&gt;&lt;span&gt;Klass Word 存储指向对象所属类（元数据）的指针，JVM通过这个确定这个对象属于哪个类&lt;/span&gt;&lt;/div&gt;&lt;p&gt;&lt;/p&gt;" style="shape=note2;boundedLbl=1;whiteSpace=wrap;html=1;size=25;verticalAlign=top;align=center;fillColor=#1ba1e2;fontColor=#ffffff;strokeColor=#FFFFFF;" parent="1" vertex="1">
                    <mxGeometry x="230" y="110" width="260" height="140" as="geometry"/>
                </mxCell>
                <mxCell id="99" value="线程A" style="endArrow=classic;html=1;" parent="1" edge="1">
                    <mxGeometry width="50" height="50" relative="1" as="geometry">
                        <mxPoint x="60" y="350" as="sourcePoint"/>
                        <mxPoint x="150" y="400" as="targetPoint"/>
                    </mxGeometry>
                </mxCell>
                <mxCell id="100" value="线程B" style="endArrow=classic;html=1;" parent="1" edge="1">
                    <mxGeometry width="50" height="50" relative="1" as="geometry">
                        <mxPoint x="40" y="460" as="sourcePoint"/>
                        <mxPoint x="150" y="440" as="targetPoint"/>
                    </mxGeometry>
                </mxCell>
                <mxCell id="101" value="" style="rounded=0;whiteSpace=wrap;html=1;strokeColor=#FFFFFF;" parent="1" vertex="1">
                    <mxGeometry x="170" y="370" width="310" height="120" as="geometry"/>
                </mxCell>
                <mxCell id="102" value="Waiting Queue" style="text;html=1;strokeColor=none;fillColor=none;align=center;verticalAlign=middle;whiteSpace=wrap;rounded=0;" parent="1" vertex="1">
                    <mxGeometry x="180" y="380" width="100" height="30" as="geometry"/>
                </mxCell>
                <mxCell id="105" value="" style="edgeStyle=none;html=1;" parent="1" source="103" target="104" edge="1">
                    <mxGeometry relative="1" as="geometry"/>
                </mxCell>
                <mxCell id="103" value="ContentionList" style="rounded=0;whiteSpace=wrap;html=1;strokeColor=#FFFFFF;" parent="1" vertex="1">
                    <mxGeometry x="180" y="420" width="120" height="40" as="geometry"/>
                </mxCell>
                <mxCell id="111" style="edgeStyle=none;html=1;entryX=0;entryY=0.5;entryDx=0;entryDy=0;" parent="1" source="104" target="106" edge="1">
                    <mxGeometry relative="1" as="geometry"/>
                </mxCell>
                <mxCell id="104" value="EntryList" style="rounded=0;whiteSpace=wrap;html=1;strokeColor=#FFFFFF;" parent="1" vertex="1">
                    <mxGeometry x="360" y="420" width="90" height="40" as="geometry"/>
                </mxCell>
                <mxCell id="113" value="" style="edgeStyle=none;html=1;" parent="1" source="106" target="112" edge="1">
                    <mxGeometry relative="1" as="geometry"/>
                </mxCell>
                <mxCell id="106" value="" style="rounded=0;whiteSpace=wrap;html=1;strokeColor=#FFFFFF;" parent="1" vertex="1">
                    <mxGeometry x="590" y="360" width="160" height="160" as="geometry"/>
                </mxCell>
                <mxCell id="107" value="Ready Thread" style="text;html=1;strokeColor=none;fillColor=none;align=center;verticalAlign=middle;whiteSpace=wrap;rounded=0;" parent="1" vertex="1">
                    <mxGeometry x="600" y="370" width="100" height="30" as="geometry"/>
                </mxCell>
                <mxCell id="108" value="Ondeck" style="rounded=0;whiteSpace=wrap;html=1;strokeColor=#FFFFFF;" parent="1" vertex="1">
                    <mxGeometry x="625" y="410" width="95" height="60" as="geometry"/>
                </mxCell>
                <mxCell id="109" value="有资格竞争锁资源的线程" style="text;html=1;strokeColor=none;fillColor=none;align=center;verticalAlign=middle;whiteSpace=wrap;rounded=0;" parent="1" vertex="1">
                    <mxGeometry x="610" y="480" width="130" height="30" as="geometry"/>
                </mxCell>
                <mxCell id="119" value="" style="edgeStyle=none;html=1;" parent="1" source="112" target="118" edge="1">
                    <mxGeometry relative="1" as="geometry"/>
                </mxCell>
                <mxCell id="121" value="wait" style="edgeStyle=none;html=1;" parent="1" source="112" target="120" edge="1">
                    <mxGeometry relative="1" as="geometry"/>
                </mxCell>
                <mxCell id="112" value="" style="rounded=0;whiteSpace=wrap;html=1;strokeColor=#FFFFFF;" parent="1" vertex="1">
                    <mxGeometry x="590" y="600" width="160" height="160" as="geometry"/>
                </mxCell>
                <mxCell id="114" value="Runing Thread" style="text;html=1;strokeColor=none;fillColor=none;align=center;verticalAlign=middle;whiteSpace=wrap;rounded=0;" parent="1" vertex="1">
                    <mxGeometry x="600" y="610" width="110" height="30" as="geometry"/>
                </mxCell>
                <mxCell id="115" value="Owner" style="ellipse;whiteSpace=wrap;html=1;strokeColor=#FFFFFF;" parent="1" vertex="1">
                    <mxGeometry x="627.5" y="650" width="90" height="60" as="geometry"/>
                </mxCell>
                <mxCell id="117" value="当前获取锁资源的线程" style="text;html=1;strokeColor=none;fillColor=none;align=center;verticalAlign=middle;whiteSpace=wrap;rounded=0;" parent="1" vertex="1">
                    <mxGeometry x="610" y="720" width="130" height="30" as="geometry"/>
                </mxCell>
                <mxCell id="118" value="释放锁" style="whiteSpace=wrap;html=1;strokeColor=#FFFFFF;rounded=0;" parent="1" vertex="1">
                    <mxGeometry x="850" y="650" width="120" height="60" as="geometry"/>
                </mxCell>
                <mxCell id="124" style="edgeStyle=none;html=1;entryX=0.5;entryY=1;entryDx=0;entryDy=0;" parent="1" source="120" target="104" edge="1">
                    <mxGeometry relative="1" as="geometry"/>
                </mxCell>
                <mxCell id="120" value="" style="whiteSpace=wrap;html=1;strokeColor=#FFFFFF;rounded=0;" parent="1" vertex="1">
                    <mxGeometry x="160" y="650" width="330" height="80" as="geometry"/>
                </mxCell>
                <mxCell id="122" value="Blocking Queue" style="text;html=1;strokeColor=none;fillColor=none;align=center;verticalAlign=middle;whiteSpace=wrap;rounded=0;" parent="1" vertex="1">
                    <mxGeometry x="170" y="660" width="110" height="30" as="geometry"/>
                </mxCell>
                <mxCell id="123" value="Wait Set" style="rounded=0;whiteSpace=wrap;html=1;strokeColor=#FFFFFF;" parent="1" vertex="1">
                    <mxGeometry x="290" y="670" width="120" height="40" as="geometry"/>
                </mxCell>
                <mxCell id="125" value="notify/notifyAll" style="text;html=1;strokeColor=none;fillColor=none;align=center;verticalAlign=middle;whiteSpace=wrap;rounded=0;" parent="1" vertex="1">
                    <mxGeometry x="384" y="540" width="86" height="30" as="geometry"/>
                </mxCell>
                <mxCell id="126" value="_count +1" style="text;html=1;strokeColor=#B09500;fillColor=#e3c800;align=center;verticalAlign=middle;whiteSpace=wrap;rounded=0;fontColor=#000000;" vertex="1" parent="1">
                    <mxGeometry x="680" y="540" width="60" height="30" as="geometry"/>
                </mxCell>
                <mxCell id="127" value="_count -1" style="text;html=1;strokeColor=#B09500;fillColor=#e3c800;align=center;verticalAlign=middle;whiteSpace=wrap;rounded=0;fontColor=#000000;" vertex="1" parent="1">
                    <mxGeometry x="500" y="640" width="60" height="30" as="geometry"/>
                </mxCell>
                <mxCell id="128" value="_count 复位" style="text;html=1;strokeColor=#B09500;fillColor=#e3c800;align=center;verticalAlign=middle;whiteSpace=wrap;rounded=0;fontColor=#000000;" vertex="1" parent="1">
                    <mxGeometry x="270" y="540" width="80" height="30" as="geometry"/>
                </mxCell>
                <mxCell id="129" value="" style="rounded=0;whiteSpace=wrap;html=1;" vertex="1" parent="1">
                    <mxGeometry x="540" y="530" width="120" height="60" as="geometry"/>
                </mxCell>
                <mxCell id="131" value="synchronized原理" style="shape=umlFrame;whiteSpace=wrap;html=1;width=110;height=45;fillColor=#fa6800;fontColor=#000000;strokeColor=#C73500;" vertex="1" parent="1">
                    <mxGeometry y="295" width="1040" height="495" as="geometry"/>
                </mxCell>
            </root>
        </mxGraphModel>
    </diagram>
    <diagram id="V0z3SnmaP-mjtXuz5StO" name="锁升级过程">
        <mxGraphModel dx="2545" dy="988" grid="1" gridSize="10" guides="1" tooltips="1" connect="1" arrows="1" fold="1" page="1" pageScale="1" pageWidth="827" pageHeight="1169" math="0" shadow="0">
            <root>
                <mxCell id="08EBCcH2ibFAGmpeRigs-0"/>
                <mxCell id="08EBCcH2ibFAGmpeRigs-1" parent="08EBCcH2ibFAGmpeRigs-0"/>
                <mxCell id="OaSillOnF8LsLLJR6WYJ-26" value="偏向锁获取" style="shape=umlFrame;whiteSpace=wrap;html=1;fontSize=10;dashed=1;fillColor=#1ba1e2;strokeColor=#006EAF;fontColor=#ffffff;" vertex="1" parent="08EBCcH2ibFAGmpeRigs-1">
                    <mxGeometry x="-30" y="90" width="650" height="750" as="geometry"/>
                </mxCell>
                <mxCell id="OaSillOnF8LsLLJR6WYJ-2" value="" style="edgeStyle=none;html=1;fillColor=#1ba1e2;strokeColor=#006EAF;" edge="1" parent="08EBCcH2ibFAGmpeRigs-1" source="OaSillOnF8LsLLJR6WYJ-0" target="OaSillOnF8LsLLJR6WYJ-1">
                    <mxGeometry relative="1" as="geometry"/>
                </mxCell>
                <mxCell id="OaSillOnF8LsLLJR6WYJ-0" value="线程" style="rounded=0;whiteSpace=wrap;html=1;fillColor=#1ba1e2;fontColor=#ffffff;strokeColor=#006EAF;" vertex="1" parent="08EBCcH2ibFAGmpeRigs-1">
                    <mxGeometry x="30" y="130" width="120" height="60" as="geometry"/>
                </mxCell>
                <mxCell id="OaSillOnF8LsLLJR6WYJ-4" value="" style="edgeStyle=none;html=1;fillColor=#1ba1e2;strokeColor=#006EAF;" edge="1" parent="08EBCcH2ibFAGmpeRigs-1" source="OaSillOnF8LsLLJR6WYJ-1" target="OaSillOnF8LsLLJR6WYJ-3">
                    <mxGeometry relative="1" as="geometry"/>
                </mxCell>
                <mxCell id="OaSillOnF8LsLLJR6WYJ-1" value="查看锁目前状态" style="rhombus;whiteSpace=wrap;html=1;rounded=0;fillColor=#1ba1e2;fontColor=#ffffff;strokeColor=#006EAF;" vertex="1" parent="08EBCcH2ibFAGmpeRigs-1">
                    <mxGeometry x="250" y="120" width="120" height="90" as="geometry"/>
                </mxCell>
                <mxCell id="OaSillOnF8LsLLJR6WYJ-7" value="是" style="edgeStyle=none;html=1;fillColor=#1ba1e2;strokeColor=#006EAF;" edge="1" parent="08EBCcH2ibFAGmpeRigs-1" source="OaSillOnF8LsLLJR6WYJ-3" target="OaSillOnF8LsLLJR6WYJ-6">
                    <mxGeometry relative="1" as="geometry"/>
                </mxCell>
                <mxCell id="OaSillOnF8LsLLJR6WYJ-9" value="否" style="edgeStyle=none;html=1;fillColor=#1ba1e2;strokeColor=#006EAF;" edge="1" parent="08EBCcH2ibFAGmpeRigs-1" source="OaSillOnF8LsLLJR6WYJ-3" target="OaSillOnF8LsLLJR6WYJ-8">
                    <mxGeometry relative="1" as="geometry"/>
                </mxCell>
                <mxCell id="OaSillOnF8LsLLJR6WYJ-3" value="是否偏向锁" style="rhombus;whiteSpace=wrap;html=1;rounded=0;fillColor=#1ba1e2;fontColor=#ffffff;strokeColor=#006EAF;" vertex="1" parent="08EBCcH2ibFAGmpeRigs-1">
                    <mxGeometry x="250" y="290" width="120" height="90" as="geometry"/>
                </mxCell>
                <mxCell id="OaSillOnF8LsLLJR6WYJ-5" value="01 标志位" style="text;html=1;align=center;verticalAlign=middle;resizable=0;points=[];autosize=1;strokeColor=none;fillColor=none;" vertex="1" parent="08EBCcH2ibFAGmpeRigs-1">
                    <mxGeometry x="320" y="240" width="70" height="20" as="geometry"/>
                </mxCell>
                <mxCell id="OaSillOnF8LsLLJR6WYJ-24" style="edgeStyle=orthogonalEdgeStyle;rounded=0;html=1;fontSize=10;strokeColor=#006EAF;fillColor=#1ba1e2;" edge="1" parent="08EBCcH2ibFAGmpeRigs-1" source="OaSillOnF8LsLLJR6WYJ-6">
                    <mxGeometry relative="1" as="geometry">
                        <mxPoint x="307.5" y="630" as="targetPoint"/>
                    </mxGeometry>
                </mxCell>
                <mxCell id="OaSillOnF8LsLLJR6WYJ-6" value="&lt;font style=&quot;font-size: 10px&quot;&gt;&lt;br&gt;检查对象头的&lt;br&gt;MarkWord记录&lt;br&gt;是否是当前的&lt;br&gt;线程ID&lt;/font&gt;" style="rhombus;whiteSpace=wrap;html=1;rounded=0;fillColor=#1ba1e2;fontColor=#ffffff;strokeColor=#006EAF;" vertex="1" parent="08EBCcH2ibFAGmpeRigs-1">
                    <mxGeometry x="245" y="450" width="125" height="90" as="geometry"/>
                </mxCell>
                <mxCell id="OaSillOnF8LsLLJR6WYJ-25" value="成功" style="edgeStyle=orthogonalEdgeStyle;rounded=0;html=1;entryX=1;entryY=0.5;entryDx=0;entryDy=0;fontSize=10;strokeColor=#006EAF;fillColor=#1ba1e2;" edge="1" parent="08EBCcH2ibFAGmpeRigs-1" source="OaSillOnF8LsLLJR6WYJ-8" target="OaSillOnF8LsLLJR6WYJ-18">
                    <mxGeometry relative="1" as="geometry">
                        <Array as="points">
                            <mxPoint x="510" y="655"/>
                        </Array>
                    </mxGeometry>
                </mxCell>
                <mxCell id="OaSillOnF8LsLLJR6WYJ-28" value="失败" style="edgeStyle=orthogonalEdgeStyle;rounded=0;html=1;fontSize=10;strokeColor=default;" edge="1" parent="08EBCcH2ibFAGmpeRigs-1" source="OaSillOnF8LsLLJR6WYJ-8" target="OaSillOnF8LsLLJR6WYJ-27">
                    <mxGeometry relative="1" as="geometry"/>
                </mxCell>
                <mxCell id="OaSillOnF8LsLLJR6WYJ-8" value="CAS操作替换&lt;br&gt;ThreadID" style="whiteSpace=wrap;html=1;rounded=0;fillColor=#1ba1e2;fontColor=#ffffff;strokeColor=#006EAF;" vertex="1" parent="08EBCcH2ibFAGmpeRigs-1">
                    <mxGeometry x="450" y="305" width="120" height="60" as="geometry"/>
                </mxCell>
                <mxCell id="OaSillOnF8LsLLJR6WYJ-16" value="否" style="rounded=0;html=1;edgeStyle=orthogonalEdgeStyle;exitX=1;exitY=0.5;exitDx=0;exitDy=0;fillColor=#1ba1e2;strokeColor=#006EAF;" edge="1" parent="08EBCcH2ibFAGmpeRigs-1" source="OaSillOnF8LsLLJR6WYJ-6">
                    <mxGeometry relative="1" as="geometry">
                        <mxPoint x="430" y="334" as="targetPoint"/>
                        <mxPoint x="375" y="500" as="sourcePoint"/>
                        <Array as="points">
                            <mxPoint x="430" y="495"/>
                        </Array>
                    </mxGeometry>
                </mxCell>
                <mxCell id="OaSillOnF8LsLLJR6WYJ-21" value="" style="edgeStyle=orthogonalEdgeStyle;rounded=0;html=1;fillColor=#1ba1e2;strokeColor=#006EAF;" edge="1" parent="08EBCcH2ibFAGmpeRigs-1" source="OaSillOnF8LsLLJR6WYJ-18" target="OaSillOnF8LsLLJR6WYJ-20">
                    <mxGeometry relative="1" as="geometry"/>
                </mxCell>
                <mxCell id="OaSillOnF8LsLLJR6WYJ-18" value="获取偏向锁&lt;br&gt;ThreadID|epoch(是否偏向锁)1|（标志位）01" style="whiteSpace=wrap;html=1;rounded=0;fillColor=#1ba1e2;fontColor=#ffffff;strokeColor=#006EAF;" vertex="1" parent="08EBCcH2ibFAGmpeRigs-1">
                    <mxGeometry x="185" y="630" width="250" height="50" as="geometry"/>
                </mxCell>
                <mxCell id="OaSillOnF8LsLLJR6WYJ-20" value="执行同步代码" style="whiteSpace=wrap;html=1;rounded=0;fillColor=#1ba1e2;fontColor=#ffffff;strokeColor=#006EAF;" vertex="1" parent="08EBCcH2ibFAGmpeRigs-1">
                    <mxGeometry x="250" y="775" width="120" height="60" as="geometry"/>
                </mxCell>
                <mxCell id="OaSillOnF8LsLLJR6WYJ-30" value="" style="edgeStyle=orthogonalEdgeStyle;rounded=0;html=1;fontSize=10;strokeColor=default;" edge="1" parent="08EBCcH2ibFAGmpeRigs-1" source="OaSillOnF8LsLLJR6WYJ-27" target="OaSillOnF8LsLLJR6WYJ-29">
                    <mxGeometry relative="1" as="geometry"/>
                </mxCell>
                <mxCell id="OaSillOnF8LsLLJR6WYJ-27" value="偏向锁撤销" style="whiteSpace=wrap;html=1;rounded=0;" vertex="1" parent="08EBCcH2ibFAGmpeRigs-1">
                    <mxGeometry x="720" y="305" width="120" height="60" as="geometry"/>
                </mxCell>
                <mxCell id="OaSillOnF8LsLLJR6WYJ-34" value="" style="edgeStyle=orthogonalEdgeStyle;rounded=0;html=1;fontSize=12;strokeColor=default;" edge="1" parent="08EBCcH2ibFAGmpeRigs-1" source="OaSillOnF8LsLLJR6WYJ-29" target="OaSillOnF8LsLLJR6WYJ-33">
                    <mxGeometry relative="1" as="geometry"/>
                </mxCell>
                <mxCell id="OaSillOnF8LsLLJR6WYJ-29" value="暂停持有偏向锁的线程" style="whiteSpace=wrap;html=1;rounded=0;" vertex="1" parent="08EBCcH2ibFAGmpeRigs-1">
                    <mxGeometry x="720" y="445" width="120" height="60" as="geometry"/>
                </mxCell>
                <mxCell id="OaSillOnF8LsLLJR6WYJ-31" value="&lt;font style=&quot;font-size: 12px&quot;&gt;原持有偏向锁的线程到达&lt;br&gt;全局安全点&lt;/font&gt;" style="text;html=1;align=center;verticalAlign=middle;resizable=0;points=[];autosize=1;strokeColor=none;fillColor=none;fontSize=10;" vertex="1" parent="08EBCcH2ibFAGmpeRigs-1">
                    <mxGeometry x="620" y="390" width="150" height="30" as="geometry"/>
                </mxCell>
                <mxCell id="OaSillOnF8LsLLJR6WYJ-38" style="edgeStyle=orthogonalEdgeStyle;rounded=0;html=1;entryX=0.5;entryY=1;entryDx=0;entryDy=0;fontSize=12;strokeColor=default;" edge="1" parent="08EBCcH2ibFAGmpeRigs-1" source="OaSillOnF8LsLLJR6WYJ-33" target="OaSillOnF8LsLLJR6WYJ-36">
                    <mxGeometry relative="1" as="geometry">
                        <Array as="points">
                            <mxPoint x="780" y="900"/>
                            <mxPoint x="-110" y="900"/>
                        </Array>
                    </mxGeometry>
                </mxCell>
                <mxCell id="OaSillOnF8LsLLJR6WYJ-43" value="" style="edgeStyle=orthogonalEdgeStyle;rounded=0;html=1;fontSize=12;strokeColor=default;" edge="1" parent="08EBCcH2ibFAGmpeRigs-1" source="OaSillOnF8LsLLJR6WYJ-33" target="OaSillOnF8LsLLJR6WYJ-42">
                    <mxGeometry relative="1" as="geometry"/>
                </mxCell>
                <mxCell id="OaSillOnF8LsLLJR6WYJ-33" value="检查原持有偏向锁&lt;br&gt;的线程状态" style="rhombus;whiteSpace=wrap;html=1;rounded=0;" vertex="1" parent="08EBCcH2ibFAGmpeRigs-1">
                    <mxGeometry x="710" y="575" width="140" height="75" as="geometry"/>
                </mxCell>
                <mxCell id="OaSillOnF8LsLLJR6WYJ-40" value="" style="edgeStyle=orthogonalEdgeStyle;rounded=0;html=1;fontSize=12;strokeColor=#2D7600;fillColor=#60a917;" edge="1" parent="08EBCcH2ibFAGmpeRigs-1" source="OaSillOnF8LsLLJR6WYJ-36" target="OaSillOnF8LsLLJR6WYJ-39">
                    <mxGeometry relative="1" as="geometry"/>
                </mxCell>
                <mxCell id="OaSillOnF8LsLLJR6WYJ-36" value="原持有偏向锁的线程 释放锁&lt;br&gt;空| (是否偏向锁)0|标志位01" style="rounded=1;whiteSpace=wrap;html=1;fontSize=12;fillColor=#60a917;fontColor=#ffffff;strokeColor=#2D7600;" vertex="1" parent="08EBCcH2ibFAGmpeRigs-1">
                    <mxGeometry x="-230" y="715" width="240" height="60" as="geometry"/>
                </mxCell>
                <mxCell id="OaSillOnF8LsLLJR6WYJ-41" style="edgeStyle=orthogonalEdgeStyle;rounded=0;html=1;entryX=0;entryY=0.5;entryDx=0;entryDy=0;fontSize=12;strokeColor=#2D7600;fillColor=#60a917;" edge="1" parent="08EBCcH2ibFAGmpeRigs-1" source="OaSillOnF8LsLLJR6WYJ-39" target="OaSillOnF8LsLLJR6WYJ-6">
                    <mxGeometry relative="1" as="geometry">
                        <Array as="points">
                            <mxPoint x="-110" y="495"/>
                        </Array>
                    </mxGeometry>
                </mxCell>
                <mxCell id="OaSillOnF8LsLLJR6WYJ-39" value="唤醒原持有偏向&lt;br&gt;锁的线程" style="whiteSpace=wrap;html=1;rounded=1;" vertex="1" parent="08EBCcH2ibFAGmpeRigs-1">
                    <mxGeometry x="-170" y="575" width="120" height="60" as="geometry"/>
                </mxCell>
                <mxCell id="OaSillOnF8LsLLJR6WYJ-42" value="升级轻量锁" style="whiteSpace=wrap;html=1;rounded=0;" vertex="1" parent="08EBCcH2ibFAGmpeRigs-1">
                    <mxGeometry x="890" y="690" width="120" height="60" as="geometry"/>
                </mxCell>
                <mxCell id="OaSillOnF8LsLLJR6WYJ-44" value="未退出代码块" style="text;html=1;align=center;verticalAlign=middle;resizable=0;points=[];autosize=1;strokeColor=none;fillColor=none;fontSize=12;" vertex="1" parent="08EBCcH2ibFAGmpeRigs-1">
                    <mxGeometry x="855" y="580" width="90" height="20" as="geometry"/>
                </mxCell>
                <mxCell id="OaSillOnF8LsLLJR6WYJ-45" value="" style="edgeStyle=orthogonalEdgeStyle;rounded=0;html=1;fontSize=10;strokeColor=default;" edge="1" source="OaSillOnF8LsLLJR6WYJ-46" target="OaSillOnF8LsLLJR6WYJ-48" parent="08EBCcH2ibFAGmpeRigs-1">
                    <mxGeometry relative="1" as="geometry"/>
                </mxCell>
                <mxCell id="OaSillOnF8LsLLJR6WYJ-46" value="偏向锁撤销" style="whiteSpace=wrap;html=1;rounded=0;" vertex="1" parent="08EBCcH2ibFAGmpeRigs-1">
                    <mxGeometry x="720" y="305" width="120" height="60" as="geometry"/>
                </mxCell>
                <mxCell id="OaSillOnF8LsLLJR6WYJ-47" value="" style="edgeStyle=orthogonalEdgeStyle;rounded=0;html=1;fontSize=12;strokeColor=default;" edge="1" source="OaSillOnF8LsLLJR6WYJ-48" target="OaSillOnF8LsLLJR6WYJ-50" parent="08EBCcH2ibFAGmpeRigs-1">
                    <mxGeometry relative="1" as="geometry"/>
                </mxCell>
                <mxCell id="OaSillOnF8LsLLJR6WYJ-48" value="暂停持有偏向锁的线程" style="whiteSpace=wrap;html=1;rounded=0;" vertex="1" parent="08EBCcH2ibFAGmpeRigs-1">
                    <mxGeometry x="720" y="445" width="120" height="60" as="geometry"/>
                </mxCell>
                <mxCell id="OaSillOnF8LsLLJR6WYJ-49" value="" style="edgeStyle=orthogonalEdgeStyle;rounded=0;html=1;fontSize=12;strokeColor=default;" edge="1" source="OaSillOnF8LsLLJR6WYJ-50" target="OaSillOnF8LsLLJR6WYJ-51" parent="08EBCcH2ibFAGmpeRigs-1">
                    <mxGeometry relative="1" as="geometry"/>
                </mxCell>
                <mxCell id="OaSillOnF8LsLLJR6WYJ-50" value="检查原持有偏向锁&lt;br&gt;的线程状态" style="rhombus;whiteSpace=wrap;html=1;rounded=0;" vertex="1" parent="08EBCcH2ibFAGmpeRigs-1">
                    <mxGeometry x="710" y="575" width="140" height="75" as="geometry"/>
                </mxCell>
                <mxCell id="OaSillOnF8LsLLJR6WYJ-51" value="升级轻量锁" style="whiteSpace=wrap;html=1;rounded=0;" vertex="1" parent="08EBCcH2ibFAGmpeRigs-1">
                    <mxGeometry x="890" y="690" width="120" height="60" as="geometry"/>
                </mxCell>
                <mxCell id="OaSillOnF8LsLLJR6WYJ-52" value="未退出代码块" style="text;html=1;align=center;verticalAlign=middle;resizable=0;points=[];autosize=1;strokeColor=none;fillColor=none;fontSize=12;" vertex="1" parent="08EBCcH2ibFAGmpeRigs-1">
                    <mxGeometry x="855" y="580" width="90" height="20" as="geometry"/>
                </mxCell>
                <mxCell id="OaSillOnF8LsLLJR6WYJ-53" style="edgeStyle=orthogonalEdgeStyle;rounded=0;html=1;entryX=0.5;entryY=1;entryDx=0;entryDy=0;fontSize=12;strokeColor=default;" edge="1" source="OaSillOnF8LsLLJR6WYJ-50" parent="08EBCcH2ibFAGmpeRigs-1">
                    <mxGeometry relative="1" as="geometry">
                        <mxPoint x="-110" y="775" as="targetPoint"/>
                        <Array as="points">
                            <mxPoint x="780" y="900"/>
                            <mxPoint x="-110" y="900"/>
                        </Array>
                    </mxGeometry>
                </mxCell>
                <mxCell id="OaSillOnF8LsLLJR6WYJ-54" value="失败" style="edgeStyle=orthogonalEdgeStyle;rounded=0;html=1;fontSize=10;strokeColor=default;" edge="1" target="OaSillOnF8LsLLJR6WYJ-46" parent="08EBCcH2ibFAGmpeRigs-1">
                    <mxGeometry relative="1" as="geometry">
                        <mxPoint x="570" y="335" as="sourcePoint"/>
                    </mxGeometry>
                </mxCell>
                <mxCell id="OaSillOnF8LsLLJR6WYJ-55" value="" style="edgeStyle=orthogonalEdgeStyle;rounded=0;html=1;fontSize=10;strokeColor=#2D7600;fillColor=#60a917;" edge="1" source="OaSillOnF8LsLLJR6WYJ-56" target="OaSillOnF8LsLLJR6WYJ-58" parent="08EBCcH2ibFAGmpeRigs-1">
                    <mxGeometry relative="1" as="geometry"/>
                </mxCell>
                <mxCell id="OaSillOnF8LsLLJR6WYJ-56" value="偏向锁撤销" style="whiteSpace=wrap;html=1;rounded=0;fillColor=#60a917;fontColor=#ffffff;strokeColor=#2D7600;" vertex="1" parent="08EBCcH2ibFAGmpeRigs-1">
                    <mxGeometry x="720" y="305" width="120" height="60" as="geometry"/>
                </mxCell>
                <mxCell id="OaSillOnF8LsLLJR6WYJ-57" value="" style="edgeStyle=orthogonalEdgeStyle;rounded=0;html=1;fontSize=12;strokeColor=#2D7600;fillColor=#60a917;" edge="1" source="OaSillOnF8LsLLJR6WYJ-58" target="OaSillOnF8LsLLJR6WYJ-60" parent="08EBCcH2ibFAGmpeRigs-1">
                    <mxGeometry relative="1" as="geometry"/>
                </mxCell>
                <mxCell id="OaSillOnF8LsLLJR6WYJ-58" value="暂停持有偏向锁的线程" style="whiteSpace=wrap;html=1;rounded=0;fillColor=#60a917;fontColor=#ffffff;strokeColor=#2D7600;" vertex="1" parent="08EBCcH2ibFAGmpeRigs-1">
                    <mxGeometry x="720" y="445" width="120" height="60" as="geometry"/>
                </mxCell>
                <mxCell id="OaSillOnF8LsLLJR6WYJ-59" value="" style="edgeStyle=orthogonalEdgeStyle;rounded=0;html=1;fontSize=12;strokeColor=#2D7600;fillColor=#60a917;" edge="1" source="OaSillOnF8LsLLJR6WYJ-60" target="OaSillOnF8LsLLJR6WYJ-61" parent="08EBCcH2ibFAGmpeRigs-1">
                    <mxGeometry relative="1" as="geometry"/>
                </mxCell>
                <mxCell id="OaSillOnF8LsLLJR6WYJ-60" value="检查原持有偏向锁&lt;br&gt;的线程状态" style="rhombus;whiteSpace=wrap;html=1;rounded=0;fillColor=#60a917;fontColor=#ffffff;strokeColor=#2D7600;" vertex="1" parent="08EBCcH2ibFAGmpeRigs-1">
                    <mxGeometry x="710" y="575" width="140" height="75" as="geometry"/>
                </mxCell>
                <mxCell id="OaSillOnF8LsLLJR6WYJ-61" value="升级轻量锁" style="whiteSpace=wrap;html=1;rounded=0;fillColor=#60a917;fontColor=#ffffff;strokeColor=#2D7600;" vertex="1" parent="08EBCcH2ibFAGmpeRigs-1">
                    <mxGeometry x="890" y="690" width="120" height="60" as="geometry"/>
                </mxCell>
                <mxCell id="OaSillOnF8LsLLJR6WYJ-62" value="未退出代码块" style="text;html=1;align=center;verticalAlign=middle;resizable=0;points=[];autosize=1;strokeColor=#2D7600;fillColor=#60a917;fontSize=12;fontColor=#ffffff;" vertex="1" parent="08EBCcH2ibFAGmpeRigs-1">
                    <mxGeometry x="855" y="580" width="90" height="20" as="geometry"/>
                </mxCell>
                <mxCell id="OaSillOnF8LsLLJR6WYJ-63" style="edgeStyle=orthogonalEdgeStyle;rounded=0;html=1;entryX=0.5;entryY=1;entryDx=0;entryDy=0;fontSize=12;strokeColor=#2D7600;fillColor=#60a917;" edge="1" source="OaSillOnF8LsLLJR6WYJ-60" parent="08EBCcH2ibFAGmpeRigs-1">
                    <mxGeometry relative="1" as="geometry">
                        <mxPoint x="-110" y="775" as="targetPoint"/>
                        <Array as="points">
                            <mxPoint x="780" y="900"/>
                            <mxPoint x="-110" y="900"/>
                        </Array>
                    </mxGeometry>
                </mxCell>
                <mxCell id="OaSillOnF8LsLLJR6WYJ-64" value="失败" style="edgeStyle=orthogonalEdgeStyle;rounded=0;html=1;fontSize=10;strokeColor=#2D7600;fillColor=#60a917;" edge="1" target="OaSillOnF8LsLLJR6WYJ-56" parent="08EBCcH2ibFAGmpeRigs-1">
                    <mxGeometry relative="1" as="geometry">
                        <mxPoint x="570" y="335" as="sourcePoint"/>
                    </mxGeometry>
                </mxCell>
                <mxCell id="OaSillOnF8LsLLJR6WYJ-65" value="唤醒原持有偏向&lt;br&gt;锁的线程" style="whiteSpace=wrap;html=1;rounded=1;fillColor=#60a917;fontColor=#ffffff;strokeColor=#2D7600;" vertex="1" parent="08EBCcH2ibFAGmpeRigs-1">
                    <mxGeometry x="-170" y="575" width="120" height="60" as="geometry"/>
                </mxCell>
            </root>
        </mxGraphModel>
    </diagram>
</mxfile>